<svg aria-hidden="true" style="width:0;height:0;position:absolute;overflow:hidden" xmlns="http://www.w3.org/2000/svg"><defs><symbol id="icon-big_arrow_right" viewBox="0 0 82 32"><path stroke-width="2.667" d="m8.063 2.682 14.579 13.607c2.495 2.329 1.115 6.511-2.275 6.898l-5.49.627a6.668 6.668 0 0 0-3.703 1.668L8.01 28.33c-2.574 2.317-6.676.49-6.676-2.973V5.605c0-3.498 4.172-5.311 6.729-2.924z"/></symbol><symbol id="icon-cow" viewBox="0 0 31 32"><path stroke-width="2.667" d="m8.063 2.682 14.579 13.607c2.495 2.329 1.115 6.511-2.275 6.898l-5.49.627a6.668 6.668 0 0 0-3.703 1.668L8.01 28.33c-2.574 2.317-6.676.49-6.676-2.973V5.605c0-3.498 4.172-5.311 6.729-2.924z"/></symbol><symbol id="icon-cursor" viewBox="0 0 25 32"><path stroke-width="2.667" d="m8.063 2.682 14.579 13.607c2.495 2.329 1.115 6.511-2.275 6.898l-5.49.627a6.668 6.668 0 0 0-3.703 1.668L8.01 28.33c-2.574 2.317-6.676.49-6.676-2.973V5.605c0-3.498 4.172-5.311 6.729-2.924z"/></symbol><symbol id="icon-facebook" viewBox="0 0 16 32"><path stroke-width="2.667" d="m8.063 2.682 14.579 13.607c2.495 2.329 1.115 6.511-2.275 6.898l-5.49.627a6.668 6.668 0 0 0-3.703 1.668L8.01 28.33c-2.574 2.317-6.676.49-6.676-2.973V5.605c0-3.498 4.172-5.311 6.729-2.924z"/></symbol><symbol id="icon-git" viewBox="0 0 32 32"><path stroke-width="2.667" d="m8.063 2.682 14.579 13.607c2.495 2.329 1.115 6.511-2.275 6.898l-5.49.627a6.668 6.668 0 0 0-3.703 1.668L8.01 28.33c-2.574 2.317-6.676.49-6.676-2.973V5.605c0-3.498 4.172-5.311 6.729-2.924z"/></symbol><symbol id="icon-ice_cream" viewBox="0 0 16 32"><path stroke-width="2.667" d="m8.063 2.682 14.579 13.607c2.495 2.329 1.115 6.511-2.275 6.898l-5.49.627a6.668 6.668 0 0 0-3.703 1.668L8.01 28.33c-2.574 2.317-6.676.49-6.676-2.973V5.605c0-3.498 4.172-5.311 6.729-2.924z"/></symbol><symbol id="icon-small_arrow_right" viewBox="0 0 22 32"><path stroke-width="2.667" d="m8.063 2.682 14.579 13.607c2.495 2.329 1.115 6.511-2.275 6.898l-5.49.627a6.668 6.668 0 0 0-3.703 1.668L8.01 28.33c-2.574 2.317-6.676.49-6.676-2.973V5.605c0-3.498 4.172-5.311 6.729-2.924z"/></symbol><symbol id="icon-telegram" viewBox="0 0 44 32"><path stroke-width="2.667" d="m8.063 2.682 14.579 13.607c2.495 2.329 1.115 6.511-2.275 6.898l-5.49.627a6.668 6.668 0 0 0-3.703 1.668L8.01 28.33c-2.574 2.317-6.676.49-6.676-2.973V5.605c0-3.498 4.172-5.311 6.729-2.924z"/></symbol><symbol id="icon-vectorfavorite" viewBox="0 0 34 32"><path stroke-width="2.667" d="m8.063 2.682 14.579 13.607c2.495 2.329 1.115 6.511-2.275 6.898l-5.49.627a6.668 6.668 0 0 0-3.703 1.668L8.01 28.33c-2.574 2.317-6.676.49-6.676-2.973V5.605c0-3.498 4.172-5.311 6.729-2.924z"/></symbol><symbol id="icon-weight" viewBox="0 0 26 32"><path stroke-width="2.667" d="m8.063 2.682 14.579 13.607c2.495 2.329 1.115 6.511-2.275 6.898l-5.49.627a6.668 6.668 0 0 0-3.703 1.668L8.01 28.33c-2.574 2.317-6.676.49-6.676-2.973V5.605c0-3.498 4.172-5.311 6.729-2.924z"/></symbol></defs></svg>