<svg aria-hidden="true" style="width:0;height:0;position:absolute;overflow:hidden" xmlns="http://www.w3.org/2000/svg"><defs><symbol id="icon-big_arrow_right" viewBox="0 0 82 32" fill="#000"><path d="M40.707 8.707a1 1 0 0 0 0-1.414L34.343.929a1 1 0 1 0-1.414 1.414L38.586 8l-5.657 5.657a1 1 0 0 0 1.414 1.414l6.364-6.364ZM0 9h40V7H0v2Z"/></symbol><symbol id="icon-small_arrow_right" viewBox="0 0 7 10" fill="#000"><path d="M.97.227a.75.75 0 0 0 0 1.06L4.682 5 .97 8.713a.75.75 0 0 0 1.06 1.06L6.273 5.53a.75.75 0 0 0 0-1.06L2.03.227a.75.75 0 0 0-1.06 0Z"/></symbol></defs></svg>