<svg aria-hidden="true" style="width:0;height:0;position:absolute;overflow:hidden" xmlns="http://www.w3.org/2000/svg"><defs><symbol id="icon-big_arrow_right"><path d="M40.707 8.707a1 1 0 0 0 0-1.414L34.343.929a1 1 0 1 0-1.414 1.414L38.586 8l-5.657 5.657a1 1 0 0 0 1.414 1.414l6.364-6.364ZM0 9h40V7H0v2Z"/></symbol><symbol id="icon-cow" viewBox="0 0 36 36"><path d="M6.94.9c-.294.253-1.133 2.003-1.434 2.958-.358 1.184-.48 2.072-.432 3.297.065 1.75.505 3.078 1.474 4.464.253.364.457.677.457.702 0 .017-.155.034-.35.034-.84 0-2.412.279-3.617.642C1.124 13.572 0 14.578 0 15.703c0 .397.358 1.073.741 1.42.741.668 2.362 1.302 4.105 1.606.603.11 2.395.296 2.794.305.073 0 .098.388.098 1.665 0 1.099.04 1.953.122 2.477.293 1.877 1.205 3.864 2.41 5.267l.416.482-.277.448c-.407.634-.562 1.116-.61 1.834-.123 1.725.952 3.255 3.03 4.329 3.957 2.054 10.107 1.251 12.412-1.623 1.124-1.404 1.254-3.01.366-4.464L25.33 29l.497-.6c.929-1.116 1.531-2.232 1.987-3.644.383-1.2.53-2.359.53-4.193 0-.837.024-1.53.065-1.53.375-.009 2.175-.203 2.745-.305 1.751-.304 3.34-.93 4.105-1.606.383-.347.741-1.023.741-1.42 0-1.252-1.27-2.266-3.633-2.875-.773-.203-2.231-.448-2.94-.49l-.334-.026.367-.507c.456-.617 1.026-1.817 1.246-2.604.619-2.274.236-4.92-1.091-7.448C29.06.705 28.677.46 28.23.874c-.171.16-.245.38-.407 1.175-.505 2.528-1.442 4.532-2.81 6.011l-.603.66H11.525l-.538-.584c-1.335-1.47-2.305-3.55-2.81-6.087-.163-.795-.236-1.014-.407-1.175-.269-.245-.53-.237-.83.025Zm1.042 5.013c.432.947.97 1.834 1.604 2.654l.505.651-.529.398c-.497.38-.961.921-1.32 1.538l-.154.28-.391-.533c-1.336-1.843-1.67-4.1-.961-6.442.342-1.133.334-1.125.643-.144.147.473.424 1.192.603 1.598Zm21.2-1.784a8.354 8.354 0 0 1 .465 2.849c0 1.539-.407 2.84-1.262 4.007l-.383.524-.285-.482a5.063 5.063 0 0 0-1.426-1.564c-.22-.143-.39-.287-.39-.304 0-.025.154-.22.35-.431.904-1.006 1.873-2.815 2.354-4.37.146-.483.293-.88.317-.88.025 0 .147.296.26.65Zm-4.161 6.18c.904.38 1.767 1.47 1.906 2.392.073.508.244.829.464.88.098.017.774.076 1.499.126 2.573.17 4.601.719 5.465 1.471.399.355.358.651-.122 1.015-.961.727-3.038 1.276-5.156 1.37-1.401.059-1.694.1-1.882.295-.138.144-.154.296-.154 1.826 0 2.072-.106 3.264-.367 4.227-.366 1.31-1.091 2.706-1.938 3.695l-.35.406-.725-.431a8.987 8.987 0 0 0-2.688-1.091c-3.087-.735-6.5-.287-8.796 1.158l-.53.338-.334-.397c-.456-.533-1.173-1.674-1.458-2.316-.627-1.454-.814-2.638-.814-5.242 0-2.528.13-2.342-1.743-2.443-2.395-.127-4.22-.558-5.368-1.285-.847-.541-.708-1.023.473-1.59 1.132-.55 2.687-.879 4.846-1.014 1.678-.11 1.718-.135 1.873-.947.228-1.226 1.132-2.24 2.273-2.562.285-.084 1.881-.101 6.768-.092l6.394.016.464.195Zm-4.578 17.5c1.996.49 3.486 1.403 4.13 2.536.155.262.22.533.252.947.033.516.009.642-.187 1.065-.904 1.92-4.227 3.187-7.607 2.9-4.064-.338-6.736-2.604-5.685-4.827.57-1.2 2.5-2.35 4.536-2.689.334-.05.668-.11.733-.127.066-.017.799-.017 1.63 0 1.131.026 1.677.076 2.198.195Z"/><path d="M12.364 14.544c-.505.17-.847.39-1.303.846-.4.38-.432.828-.098 1.099.31.253.603.22.977-.11.473-.414.84-.583 1.296-.583.456-.009.806.152 1.294.583.375.33.668.363.978.11.163-.135.212-.245.212-.499 0-.262-.057-.38-.343-.668-.806-.811-2.003-1.124-3.013-.778ZM21.86 14.536c-.52.194-1.189.634-1.457.963-.261.322-.27.685 0 .956.268.287.594.27.985-.051.961-.795 1.678-.82 2.566-.085.228.195.488.347.57.347.399 0 .725-.355.725-.778 0-.27-.676-.896-1.287-1.192-.676-.33-1.482-.389-2.101-.16ZM13.545 30.185c-.236.228-.318.558-.196.82.09.211.228.296.79.448.253.067.359.152.448.363.114.28.123.28.75.305l.627.025v-.237c-.008-.338-.196-.828-.44-1.166-.285-.39-.782-.643-1.344-.694-.383-.033-.48-.017-.635.136ZM21.323 30.125c-.407.11-.993.66-1.156 1.09a2.92 2.92 0 0 0-.155.77c-.016.363.016.448.212.626.48.422 1.116.093 1.116-.584 0-.33.244-.558.676-.642.456-.085.619-.27.627-.702 0-.566-.505-.786-1.32-.558Z"/></symbol><symbol id="icon-facebook"><path d="M9.723 10.98H6.95V21.2H2.748V10.98H.75V7.39h1.998V5.065C2.748 3.403 3.533.8 6.988.8L10.1.813V4.3H7.842c-.37 0-.892.187-.892.98v2.113h3.14l-.367 3.588Z"/></symbol><symbol id="icon-git"><path d="M10 0C4.507 0 0 4.507 0 10c0 4.687 3.289 8.945 7.656 10v-3.308a2.446 2.446 0 0 1-1.271-.033c-.591-.174-1.071-.568-1.428-1.168-.227-.383-.63-.8-1.05-.769l-.103-1.167c.909-.078 1.694.554 2.16 1.337.208.349.447.553.753.643.295.088.613.046.983-.085.093-.741.433-1.018.69-1.41-2.605-.388-3.643-1.77-4.055-2.86-.546-1.449-.253-3.258.712-4.402.019-.022.053-.08.04-.12-.443-1.338.096-2.444.116-2.561.511.15.594-.152 2.22.835l.28.169c.118.07.08.03.198.02A8.487 8.487 0 0 1 10 4.828c.71.009 1.42.11 2.127.302l.091.01c-.008-.002.025-.006.08-.039 2.03-1.23 1.957-.828 2.502-1.005.02.118.551 1.242.114 2.562-.06.182 1.76 1.848.751 4.522-.412 1.09-1.45 2.473-4.054 2.861.334.51.735.78.733 1.83V20C16.71 18.945 20 14.687 20 10c0-5.493-4.507-10-10-10Z"/></symbol><symbol id="icon-ice_cream" viewBox="0 0 36 36"><path d="M9.122.12c.09.242.271 1.409.271 1.77a3.47 3.47 0 0 1-.941 2.388c-.505.542-1.01.843-2.222 1.333-1.348.55-1.906.881-2.538 1.506-.64.64-1.017 1.34-1.153 2.162-.15.896 0 1.528.46 1.89l.233.18-.369.234c-.745.49-2.1 1.642-2.334 1.996-.452.678-.407 1.31.105 1.567l.241.12-.271.256c-.407.384-.49.648-.43 1.34.038.46.023.709-.082 1.085-.128.49-.128.497.037.844.166.339.633.768 1.055.949.203.09.21.12.256.813.022.4.06 1.672.09 2.832.023 1.16.076 2.222.12 2.35.038.135.182.316.31.406.436.302.738.626.933 1.002.219.43.46 1.484 1.19 5.129l.513 2.56.316.302c.602.595 1.755.866 3.653.866 1.905 0 3.042-.264 3.645-.859l.324-.308L13 32.46c1.031-5.189 1.122-5.475 1.928-6.115.248-.204.49-.452.534-.565.053-.128.106-1.115.143-2.606.03-1.325.076-2.636.106-2.915l.045-.504.49-.37c.617-.474.858-.903.858-1.566-.007-.783-.52-1.642-1.453-2.41l-.445-.361.219-.31c.911-1.257.339-2.997-1.356-4.156l-.512-.354.188-.196c.836-.896.972-3.57.271-5.43-.421-1.107-1.385-2.312-2.568-3.201C10.87.964 9.273 0 9.13 0c-.03 0-.03.053-.007.12ZM11.29 2.75c.4.392.881.926 1.07 1.197 1.122 1.567 1.408 3.533.73 4.979-.271.587-1.085 1.46-1.838 1.98-1.152.799-3.743 2.14-5.55 2.877-2.907 1.183-4.594 1.409-4.79.633-.076-.294.143-.527 1.07-1.145.835-.572 4.586-3.359 4.654-3.472.022-.03-.362.143-.844.384-1.634.829-2.41.67-2.372-.482.022-.836.625-1.785 1.46-2.327.212-.135.867-.437 1.47-.678C8.33 5.897 8.933 5.49 9.603 4.49c.4-.595.836-1.695.866-2.162.007-.165.038-.294.06-.294.023 0 .362.324.76.716Zm2.056 8.556c.55.308 1.122.836 1.37 1.25.438.745.212 1.491-.73 2.44-1.024 1.04-2.771 2.034-4.692 2.666-1.77.58-3.464.851-5.89.934l-1.506.053.98.06c1.265.083 3.712.008 4.661-.143 2.523-.4 4.67-1.198 6.206-2.297.347-.249.708-.452.806-.452.249 0 1.333 1.04 1.552 1.476.12.249.15.43.128.67-.113 1.002-1.333 1.537-4.278 1.89-3.6.43-8.307.008-10.318-.918-.95-.437-1.107-.686-.866-1.348.075-.211.09-.46.06-.814-.038-.467-.03-.527.135-.7.377-.407 1.01-.64 3.33-1.228.813-.21 1.92-.542 2.447-.738 1.28-.467 3.683-1.68 4.798-2.425 1.046-.693 1.197-.723 1.807-.376ZM3.345 20.523c1.582.46 2.983.595 5.589.542 1.958-.037 3.163-.158 4.902-.467.354-.06.663-.113.701-.113.083 0 .06 2.892-.03 3.653-.098.806-.316 1.431-.55 1.582-.241.158-1.446.324-3.058.414-3.306.18-6.703 0-7.757-.422-.572-.233-.633-.535-.64-3.329 0-1.86.015-2.116.113-2.078.06.022.391.12.73.218Zm1.785 6.402c.543.067 1.13.135 1.31.158l.325.038-.287.316c-.369.399-.934 1.197-1.137 1.604-.233.467-.309.497-.655.309l-.294-.166-.166-1.024a28.8 28.8 0 0 0-.21-1.183c-.068-.195-.136-.195 1.114-.052Zm8.029-.083c0 .015-.038.21-.076.43-.045.225-.233 1.453-.421 2.733-.385 2.674-.64 3.931-.874 4.353-.324.565-1.1.896-2.357 1.002-.49.038-1.966-.06-2.049-.136-.06-.067 1.235-1.672 1.439-1.777.188-.106.24-.09.88.24.746.393 1.123.453 1.123.204 0-.248-.196-.49-.678-.82-.444-.317-.602-.498-.602-.709 0-.06.218-.399.482-.753.263-.354.647-.919.843-1.258l.37-.61.338.046c.685.098.866.09.844-.06-.015-.076-.143-.294-.287-.475-.143-.188-.256-.377-.256-.414 0-.143.7-1.461.927-1.74.196-.241.354-.362.354-.256Zm-4.707.602c.376.249 1.792 1.477 1.882 1.627.038.068-1.415 2.342-1.702 2.666-.03.038-.188-.037-.346-.158a24.702 24.702 0 0 0-1.31-.904l-1.017-.67.61-1.032c1.084-1.815 1.062-1.785 1.295-1.785.12 0 .384.113.588.256Zm2.854.271c-.264.324-.482.528-.572.528-.196 0-.512-.173-1.047-.565l-.445-.324.89-.053a17.57 17.57 0 0 0 1.03-.067c.603-.098.603-.09.144.481Zm-5.694 3.623c.693.271 1.868.911 2.207 1.198.241.195.241.21.143.451-.06.136-.264.497-.467.806-.196.302-.422.678-.504.836-.241.467-.317.505-.814.37-.535-.159-.82-.43-.971-.92-.204-.685-.528-2.62-.49-2.922.015-.113.331-.045.896.181Z"/></symbol><symbol id="icon-small_arrow_right"><path d="M.97.227a.75.75 0 0 0 0 1.06L4.682 5 .97 8.713a.75.75 0 0 0 1.06 1.06L6.273 5.53a.75.75 0 0 0 0-1.06L2.03.227a.75.75 0 0 0-1.06 0Z"/></symbol><symbol id="icon-telegram"><path d="m8.673 10.524-.338 4.43c.483 0 .692-.194.943-.426l2.264-2.02 4.69 3.207c.86.447 1.466.211 1.698-.739l3.08-13.464V1.51C21.283.324 20.55-.14 19.712.15L1.615 6.617C.38 7.065.399 7.707 1.405 8l4.627 1.343 10.747-6.276c.505-.313.965-.14.587.173l-8.693 7.285Z"/></symbol><symbol id="icon-vectorfavorite"><path d="m7 12.88-.98-.98C2.38 8.68 0 6.51 0 3.85 0 1.68 1.68 0 3.85 0 5.04 0 6.23.56 7 1.47 7.77.56 8.96 0 10.15 0 12.32 0 14 1.68 14 3.85c0 2.66-2.38 4.83-6.02 8.05l-.98.98Z"/></symbol><symbol id="icon-weight" viewBox="0 0 36 36"><path d="M11.95.615c-4.472.663-8.153 3.146-9.508 6.396-.432 1.027-.548 1.658-.548 2.895.008.914.041 1.253.183 1.746.29.97.498 1.464.93 2.16l.4.646-.45.55c-3.548 4.415-3.939 10.625-.98 15.517 1.105 1.835 2.909 3.639 4.67 4.69l.524.307 7.164-.057 7.172-.064.34-.186c1.189-.671 2.867-2.167 3.806-3.38a14.188 14.188 0 0 0 2.726-6.323c.133-.833.133-3.3-.008-4.084-.424-2.417-1.33-4.487-2.759-6.323-.274-.348-.49-.639-.49-.663 0-.016.15-.267.324-.55.407-.647.773-1.48.972-2.207.224-.809.224-2.83 0-3.639-.798-2.87-3.191-5.264-6.573-6.582-.948-.372-2.569-.768-3.616-.897-.972-.114-3.374-.09-4.28.048Zm5.06 1.318c4.438.865 7.688 3.582 8.286 6.93.133.752.05 2.03-.174 2.74-.225.696-.64 1.513-1.13 2.208-.2.283-.366.607-.366.712 0 .105.174.38.424.655 2.077 2.304 3.174 5.191 3.174 8.312-.008 3.55-1.371 6.663-3.997 9.105-.449.42-1.089.946-1.43 1.172l-.623.42-6.873.025-6.864.032-.532-.34c-1.928-1.253-3.665-3.323-4.629-5.522-1.213-2.781-1.338-6.008-.349-8.902.524-1.504 1.222-2.733 2.285-4.027.433-.518.632-.825.632-.97 0-.122-.216-.518-.499-.93-.997-1.448-1.404-3.057-1.163-4.577.25-1.536.947-2.798 2.235-4.051 1.68-1.625 4.023-2.7 6.774-3.105 1.138-.17 3.656-.105 4.82.113Z"/><path d="M12.323 3.356c-3.407.558-6.075 2.45-6.947 4.933-.2.558-.233.776-.233 1.577 0 .8.033 1.018.233 1.576.124.356.357.85.515 1.1.432.695.623.72 1.48.202a13.439 13.439 0 0 1 4.28-1.674c1.03-.21 3.008-.29 4.13-.161 1.753.202 3.656.832 5.177 1.73.432.25.873.46.98.46.632 0 1.438-1.819 1.438-3.233 0-3.146-3.008-5.839-7.271-6.51-.906-.145-2.91-.145-3.782 0Zm4.114 1.294c1.43.307 2.742.89 3.732 1.658 1.33 1.027 2.044 2.458 1.927 3.84-.041.55-.249 1.294-.373 1.375-.034.016-.5-.178-1.031-.437A16.485 16.485 0 0 0 17.06 9.85c-.773-.161-1.097-.186-2.825-.178-1.704 0-2.061.025-2.8.178-1.28.275-2.278.615-3.508 1.197-1.238.59-1.172.598-1.396-.13-.29-.945-.108-2.199.457-3.145.3-.501 1.122-1.334 1.72-1.746 1.139-.785 2.136-1.14 4.28-1.529.44-.08 2.884.033 3.449.154ZM15.083 15.08c-.233.292-.233.567.008.801.158.154.316.194.89.235a7.321 7.321 0 0 1 3.132.954c.682.404 1.72 1.383 2.186 2.086.69 1.01 1.163 2.458 1.163 3.526 0 .372.034.485.208.646.266.267.615.267.873 0 .183-.186.19-.234.141-1.026-.233-3.914-3.582-7.18-7.587-7.4l-.832-.048-.182.227Z"/></symbol><symbol id="icon-burger-menu" viewBox="0 0 32 32"><path d="M31.5 18.75h-28a1.25 1.25 0 0 1 0-2.5h28a1.25 1.25 0 0 1 0 2.5ZM31.5 5.455h-28a1.25 1.25 0 0 1 0-2.5h28a1.25 1.25 0 0 1 0 2.5ZM31.5 32.045h-28a1.25 1.25 0 0 1 0-2.5h28a1.25 1.25 0 0 1 0 2.5Z"/></symbol><symbol id="cross"><path class="fil0" d="M5.91 1.218a.213.213 0 0 0-.3-.302L.915 5.609a.213.213 0 0 0 .301.302l4.694-4.693z"/><path class="fil0" d="M1.218.916a.213.213 0 0 0-.302.301l4.693 4.694a.213.213 0 0 0 .302-.302L1.218.916z"/></symbol></defs></svg>