<svg aria-hidden="true" style="position: absolute; width: 0; height: 0; overflow: hidden;" version="1.1" xmlns="http://www.w3.org/2000/svg" xmlns:xlink="http://www.w3.org/1999/xlink">
<defs>

<symbol id="icon-big_arrow_right" >
<path d="M40.7071 8.70711C41.0976 8.31658 41.0976 7.68342 40.7071 7.29289L34.3431 0.928932C33.9526 0.538408 33.3195 0.538408 32.9289 0.928932C32.5384 1.31946 32.5384 1.95262 32.9289 2.34315L38.5858 8L32.9289 13.6569C32.5384 14.0474 32.5384 14.6805 32.9289 15.0711C33.3195 15.4616 33.9526 15.4616 34.3431 15.0711L40.7071 8.70711ZM0 9H40V7H0V9Z"></path>
</symbol>

<symbol id="icon-cow" width="36" height="36" viewBox="0 0 36 36">
<path d="M6.93937 0.899403C6.64615 1.15302 5.80724 2.90303 5.50588 3.85834C5.14751 5.04191 5.02534 5.9296 5.07421 7.15544C5.13937 8.90544 5.57919 10.2327 6.54842 11.6192C6.80091 11.9827 7.00453 12.2955 7.00453 12.3209C7.00453 12.3378 6.84977 12.3547 6.6543 12.3547C5.81538 12.3547 4.24344 12.6337 3.03801 12.9972C1.12398 13.5721 0 14.5781 0 15.7025C0 16.0999 0.358371 16.7762 0.741176 17.1228C1.48235 17.7907 3.10317 18.4248 4.84615 18.7291C5.44887 18.839 7.24072 19.025 7.63982 19.0335C7.71312 19.0335 7.73756 19.4223 7.73756 20.6989C7.73756 21.7979 7.77828 22.6518 7.85973 23.176C8.15294 25.0528 9.06516 27.0395 10.2706 28.4429L10.686 28.9248L10.409 29.3728C10.0018 30.0069 9.84706 30.4888 9.79819 31.2074C9.67602 32.932 10.7511 34.4622 12.8281 35.5359C16.7864 37.5902 22.9357 36.7871 25.2407 33.9127C26.3647 32.5093 26.495 30.903 25.6072 29.4489L25.3303 29.0008L25.8272 28.4006C26.7557 27.2847 27.3584 26.1687 27.8145 24.7569C28.1973 23.5564 28.3439 22.3982 28.3439 20.5636C28.3439 19.7267 28.3683 19.0335 28.4091 19.0335C28.7837 19.025 30.5837 18.8306 31.1538 18.7291C32.905 18.4248 34.4932 17.7992 35.2588 17.1228C35.6416 16.7762 36 16.0999 36 15.7025C36 14.4513 34.7294 13.4368 32.3674 12.8281C31.5937 12.6252 30.1357 12.3801 29.4272 12.3378L29.0932 12.3124L29.4597 11.8052C29.9158 11.188 30.486 9.98757 30.7059 9.20133C31.3249 6.92718 30.9421 4.28104 29.6145 1.75327C29.0606 0.704956 28.6778 0.459789 28.2299 0.874039C28.0588 1.03467 27.9855 1.25447 27.8226 2.04916C27.3176 4.57693 26.381 6.58056 25.0127 8.06003L24.41 8.71945H17.9674H11.5249L10.9873 8.13612C9.65158 6.6651 8.68235 4.58539 8.17738 2.04916C8.01448 1.25447 7.94118 1.03467 7.77014 0.874039C7.50136 0.628872 7.24072 0.637325 6.93937 0.899403ZM7.9819 5.91269C8.41358 6.85955 8.95113 7.74723 9.58643 8.56728L10.0914 9.21824L9.56199 9.61559C9.06516 9.99602 8.60091 10.5371 8.24253 11.1542L8.08778 11.4332L7.69683 10.9006C6.36109 9.05761 6.02715 6.80037 6.73575 4.45858C7.07783 3.32573 7.06968 3.33419 7.37919 4.31486C7.52579 4.78829 7.80272 5.50689 7.9819 5.91269ZM29.1828 4.12887C29.5167 5.13491 29.6471 5.93805 29.6471 6.9779C29.6471 8.51655 29.2398 9.81848 28.3846 10.9851L28.0018 11.5093L27.7167 11.0274C27.3828 10.4356 26.8127 9.81848 26.2914 9.46341C26.0715 9.31969 25.9005 9.17597 25.9005 9.15906C25.9005 9.1337 26.0552 8.93926 26.2507 8.7279C27.1548 7.72186 28.124 5.91269 28.6045 4.35713C28.7511 3.87525 28.8977 3.47791 28.9222 3.47791C28.9466 3.47791 29.0688 3.7738 29.1828 4.12887ZM25.0208 10.3088C25.9249 10.6893 26.7882 11.7798 26.9267 12.7013C27 13.2086 27.171 13.5298 27.391 13.5806C27.4887 13.5975 28.1647 13.6566 28.8896 13.7074C31.4634 13.8765 33.4914 14.426 34.3548 15.1784C34.7538 15.5335 34.7131 15.8294 34.2326 16.1929C33.2715 16.9199 31.1946 17.4694 29.0769 17.5624C27.676 17.6216 27.3828 17.6639 27.1955 17.8583C27.057 18.0021 27.0407 18.1542 27.0407 19.6844C27.0407 21.7557 26.9348 22.9477 26.6742 23.9115C26.3077 25.2219 25.5828 26.6168 24.7357 27.6059L24.3855 28.0117L23.6606 27.5806C22.781 27.0564 21.9584 26.7182 20.9729 26.49C17.886 25.7545 14.4733 26.2025 12.1765 27.6482L11.6471 27.9864L11.3131 27.589C10.857 27.0564 10.1403 25.9151 9.8552 25.2726C9.22806 23.8185 9.04072 22.6349 9.04072 20.031C9.04072 17.5033 9.17104 17.6893 7.29774 17.5878C4.90317 17.461 3.07873 17.0298 1.93032 16.3028C1.08326 15.7617 1.22172 15.2798 2.40271 14.7134C3.53484 14.1639 5.0905 13.8342 7.24887 13.6989C8.9267 13.589 8.96742 13.5637 9.12217 12.7521C9.35023 11.5262 10.2543 10.5117 11.3946 10.1905C11.6796 10.1059 13.276 10.089 18.1629 10.0975L24.5566 10.1144L25.0208 10.3088ZM20.4434 27.8088C22.4389 28.2992 23.9294 29.2122 24.5729 30.345C24.7276 30.6071 24.7928 30.8777 24.8253 31.2919C24.8579 31.8076 24.8335 31.9344 24.638 32.3571C23.7339 34.2762 20.4109 35.5443 17.0308 35.2569C12.9665 34.9187 10.295 32.653 11.3457 30.4296C11.9158 29.2291 13.8462 28.0793 15.8824 27.7412C16.2163 27.6905 16.5502 27.6313 16.6154 27.6144C16.6805 27.5975 17.4136 27.5975 18.2443 27.6144C19.3765 27.6397 19.9222 27.6905 20.4434 27.8088Z" />
<path d="M12.364 14.5444C11.859 14.7135 11.5169 14.9333 11.0608 15.3899C10.6617 15.7703 10.6291 16.2184 10.9631 16.4889C11.2726 16.7425 11.5658 16.7087 11.9404 16.379C12.4128 15.9647 12.7793 15.7956 13.2355 15.7956C13.6916 15.7872 14.0418 15.9478 14.5305 16.379C14.9051 16.7087 15.1983 16.7425 15.5079 16.4889C15.6707 16.3536 15.7196 16.2437 15.7196 15.9901C15.7196 15.728 15.6626 15.6097 15.3775 15.3222C14.5712 14.5106 13.3739 14.1978 12.364 14.5444Z" />
<path d="M21.8606 14.5356C21.3393 14.73 20.6714 15.1696 20.4026 15.4993C20.142 15.8206 20.1339 16.1841 20.4026 16.4547C20.6714 16.7421 20.9972 16.7252 21.3882 16.4039C22.3492 15.6093 23.066 15.5839 23.9538 16.3194C24.1818 16.5138 24.4425 16.666 24.5239 16.666C24.923 16.666 25.2488 16.3109 25.2488 15.8882C25.2488 15.6177 24.5728 14.9921 23.9619 14.6962C23.2859 14.3665 22.4796 14.3073 21.8606 14.5356Z" />
<path d="M13.5448 30.1846C13.3086 30.4129 13.2272 30.7426 13.3493 31.0047C13.4389 31.216 13.5774 31.3006 14.1394 31.4528C14.3919 31.5204 14.4978 31.6049 14.5874 31.8163C14.7014 32.0953 14.7095 32.0953 15.3367 32.1206L15.9638 32.146V31.9093C15.9557 31.5711 15.7683 31.0808 15.524 30.7426C15.2389 30.3537 14.7421 30.1001 14.1801 30.0494C13.7973 30.0156 13.6996 30.0325 13.5448 30.1846Z" />
<path d="M21.3233 30.125C20.916 30.2349 20.3296 30.7844 20.1667 31.2156C20.0934 31.41 20.0201 31.7567 20.012 31.9849C19.9957 32.3484 20.0282 32.433 20.2237 32.6105C20.7043 33.0332 21.3396 32.7035 21.3396 32.0272C21.3396 31.6975 21.5839 31.4692 22.0156 31.3847C22.4717 31.3001 22.6346 31.1141 22.6427 30.683C22.6427 30.1166 22.1377 29.8967 21.3233 30.125Z" />
</symbol>

<symbol id="icon-facebook">
<path d="M9.72348 10.9804H6.95018V21.2001H2.74839V10.9804H0.75V7.38881H2.74839V5.06464C2.74839 3.40261 3.53328 0.800049 6.98758 0.800049L10.1 0.813146V4.2994H7.84174C7.47132 4.2994 6.95046 4.48555 6.95046 5.27839V7.39216H10.0906L9.72348 10.9804Z"></path>
</symbol>

<symbol id="icon-git" >
<path d="M10 0C4.50745 0 0 4.50745 0 10C0 14.687 3.28888 18.9447 7.65625 20V16.6916C7.22351 16.7863 6.82526 16.7891 6.38474 16.6592C5.79376 16.4848 5.31357 16.0912 4.95712 15.4909C4.72992 15.1076 4.32724 14.6919 3.90717 14.7224L3.80417 13.5551C4.71252 13.4773 5.49835 14.1086 5.96481 14.8923C6.17203 15.2408 6.41052 15.4451 6.71661 15.5354C7.01248 15.6226 7.33017 15.5807 7.70035 15.45C7.79327 14.7089 8.13278 14.4315 8.38928 14.0408V14.0402C5.78461 13.6517 4.74655 12.2699 4.33456 11.1792C3.7886 9.73099 4.08157 7.92175 5.047 6.77841C5.06577 6.75613 5.09964 6.69785 5.08652 6.6571C4.64386 5.31998 5.18326 4.21387 5.20309 4.09653C5.71396 4.24759 5.79697 3.94455 7.42218 4.93195L7.70309 5.10071C7.82059 5.17075 7.78366 5.13077 7.90115 5.12192C8.57971 4.93759 9.29504 4.83582 9.99985 4.82666C10.71 4.83582 11.4207 4.93759 12.1274 5.12939L12.2183 5.13855C12.2104 5.13733 12.243 5.13275 12.2978 5.1001C14.328 3.87039 14.2551 4.27231 14.7995 4.09531C14.8192 4.2128 15.3514 5.33691 14.9135 6.6571C14.8544 6.83899 16.6736 8.50479 15.6653 11.1787C15.2533 12.2699 14.2154 13.6517 11.6107 14.0402V14.0408C11.9446 14.5497 12.3457 14.8204 12.3436 15.8702V20C16.7111 18.9447 19.9998 14.687 19.9998 10C20 4.50745 15.4926 0 10 0V0Z"></path>
</symbol>

<symbol id="icon-ice_cream" width="36" height="36" viewBox="0 0 36 36" >
<path d="M9.1219 0.120502C9.21227 0.361507 9.39303 1.52887 9.39303 1.89038C9.39303 2.78661 9.06165 3.62259 8.4516 4.27782C7.947 4.82008 7.4424 5.12134 6.22985 5.61088C4.88173 6.16067 4.32441 6.49205 3.69177 7.11716C3.0516 7.75732 2.67504 8.45774 2.53947 9.27866C2.38884 10.1749 2.53947 10.8075 2.99888 11.169L3.23236 11.3498L2.86332 11.5833C2.11771 12.0728 0.762065 13.2251 0.528592 13.5791C0.0767091 14.2569 0.121897 14.8895 0.634031 15.1456L0.875035 15.2661L0.603906 15.5222C0.197211 15.9063 0.114366 16.1699 0.174617 16.8628C0.212274 17.3222 0.197211 17.5707 0.0917718 17.9473C-0.0362616 18.4368 -0.0362616 18.4444 0.129429 18.7908C0.295119 19.1297 0.762065 19.559 1.18382 19.7397C1.38717 19.8301 1.3947 19.8603 1.43989 20.5531C1.46248 20.9523 1.50014 22.2251 1.53027 23.3849C1.55286 24.5448 1.60558 25.6067 1.65077 25.7347C1.68842 25.8703 1.83152 26.051 1.95955 26.1414C2.39637 26.4427 2.69763 26.7665 2.89345 27.1431C3.11186 27.5724 3.35286 28.6268 4.0834 32.272L4.59554 34.8326L4.91186 35.1339C5.51437 35.7289 6.66667 36 8.56458 36C10.47 36 11.6073 35.7364 12.2098 35.1414L12.5336 34.8326L13.0006 32.4603C14.0324 27.2711 14.1227 26.9849 14.9286 26.3448C15.1771 26.1414 15.4181 25.8929 15.4633 25.7799C15.516 25.6519 15.5688 24.6653 15.6064 23.1741C15.6365 21.8485 15.6817 20.5381 15.7119 20.2594L15.757 19.7548L16.2466 19.3858C16.8642 18.9113 17.1052 18.482 17.1052 17.8192C17.0976 17.036 16.5855 16.1774 15.6516 15.4092L15.2073 15.0477L15.4257 14.7389C16.337 13.4812 15.7646 11.7414 14.07 10.5816L13.5579 10.2276L13.7462 10.0318C14.5821 9.13556 14.7177 6.46193 14.0173 4.60167C13.5955 3.49456 12.6315 2.28954 11.4491 1.40084C10.8692 0.964016 9.27252 0 9.12943 0C9.0993 0 9.0993 0.0527191 9.1219 0.120502ZM11.2909 2.74895C11.6901 3.14059 12.1721 3.67531 12.3604 3.94644C13.4826 5.51297 13.7688 7.47866 13.0909 8.92469C12.8198 9.51213 12.0064 10.3858 11.2533 10.9054C10.101 11.7038 7.51018 13.0444 5.70265 13.7824C2.79554 14.9649 1.10851 15.1908 0.912692 14.4151C0.837379 14.1213 1.05579 13.8879 1.98215 13.2703C2.81813 12.6979 6.56876 9.9113 6.63654 9.79833C6.65914 9.7682 6.27503 9.94142 5.79303 10.1824C4.15872 11.0109 3.38299 10.8527 3.42064 9.70042C3.44324 8.86444 4.04575 7.91548 4.88173 7.37322C5.09261 7.23766 5.74784 6.9364 6.35035 6.6954C8.3311 5.89707 8.93361 5.49038 9.60391 4.4887C10.0031 3.89372 10.4399 2.79414 10.47 2.3272C10.4775 2.16151 10.5077 2.03347 10.5303 2.03347C10.5529 2.03347 10.8918 2.35732 11.2909 2.74895ZM13.347 11.3046C13.8968 11.6134 14.4692 12.1406 14.7177 12.5548C15.1545 13.3004 14.9286 14.046 13.9872 14.995C12.9629 16.0343 11.2156 17.0285 9.29512 17.6611C7.52524 18.241 5.83068 18.5121 3.40558 18.595L1.8993 18.6477L2.87838 18.708C4.14365 18.7908 6.59135 18.7155 7.54031 18.5649C10.0633 18.1657 12.2098 17.3674 13.7462 16.2678C14.0926 16.0192 14.4541 15.8159 14.552 15.8159C14.8006 15.8159 15.8851 16.8552 16.1035 17.292C16.224 17.5406 16.2541 17.7213 16.2315 17.9623C16.1185 18.964 14.8985 19.4987 11.9537 19.8527C8.3537 20.282 3.64658 19.8603 1.6357 18.9339C0.686751 18.4971 0.528592 18.2485 0.769596 17.5858C0.84491 17.3749 0.859973 17.1264 0.829847 16.7724C0.79219 16.3054 0.799722 16.2452 0.965412 16.072C1.34198 15.6653 1.97462 15.4318 4.29428 14.8444C5.10767 14.6335 6.21478 14.3021 6.74198 14.1063C8.02232 13.6393 10.4248 12.4268 11.5395 11.6812C12.5863 10.9883 12.737 10.9582 13.347 11.3046ZM3.34533 20.523C4.92692 20.9824 6.32775 21.118 8.93361 21.0653C10.8918 21.0276 12.0968 20.9071 13.8365 20.5983C14.1905 20.5381 14.4993 20.4854 14.537 20.4854C14.6198 20.4854 14.5972 23.3774 14.5068 24.1381C14.4089 24.9439 14.1905 25.569 13.957 25.7197C13.716 25.8778 12.511 26.0435 10.8993 26.1339C7.59303 26.3146 4.19637 26.1339 3.14198 25.7121C2.5696 25.4787 2.50935 25.1774 2.50181 22.3833C2.50181 20.523 2.51688 20.2669 2.61478 20.3046C2.67504 20.3272 3.00642 20.4251 3.34533 20.523ZM5.13027 26.9247C5.67252 26.9925 6.25997 27.0603 6.44073 27.0828L6.76457 27.1205L6.47838 27.4368C6.10934 27.836 5.54449 28.6343 5.34114 29.041C5.10767 29.5079 5.03236 29.5381 4.68591 29.3498L4.39219 29.1841L4.2265 28.1598C4.13612 27.6025 4.03822 27.0678 4.01562 26.9774C3.94784 26.7816 3.88006 26.7816 5.13027 26.9247ZM13.1587 26.8418C13.1587 26.8569 13.1211 27.0527 13.0834 27.2711C13.0382 27.4971 12.8499 28.7247 12.6616 30.005C12.2775 32.6787 12.0215 33.9364 11.788 34.3582C11.4642 34.923 10.6884 35.2544 9.43068 35.3598C8.94114 35.3975 7.46499 35.2996 7.38215 35.2243C7.3219 35.1565 8.61729 33.5523 8.82064 33.4469C9.00893 33.3414 9.06165 33.3565 9.70181 33.6879C10.4474 34.0795 10.824 34.1397 10.824 33.8912C10.824 33.6427 10.6282 33.4017 10.1462 33.0703C9.70181 32.754 9.54365 32.5732 9.54365 32.3623C9.54365 32.3021 9.76206 31.9632 10.0257 31.6092C10.2893 31.2552 10.6734 30.6904 10.8692 30.3515L11.2382 29.7414L11.5771 29.7866C12.2625 29.8845 12.4432 29.877 12.4206 29.7264C12.4056 29.651 12.2775 29.4326 12.1344 29.2519C11.9914 29.0636 11.8784 28.8753 11.8784 28.8377C11.8784 28.6946 12.5788 27.3766 12.8047 27.0979C13.0006 26.8569 13.1587 26.7364 13.1587 26.8418ZM8.4516 27.4444C8.82817 27.6929 10.2441 28.9205 10.3344 29.0711C10.3721 29.1389 8.91855 31.4134 8.63236 31.7372C8.60223 31.7749 8.44407 31.6996 8.28591 31.5791C8.12776 31.451 7.54031 31.0444 6.97545 30.6753L5.95872 30.005L6.56876 28.9732C7.65328 27.1582 7.63068 27.1883 7.86416 27.1883C7.98466 27.1883 8.24826 27.3013 8.4516 27.4444ZM11.306 27.7155C11.0424 28.0393 10.824 28.2427 10.7336 28.2427C10.5378 28.2427 10.2215 28.0695 9.68675 27.6778L9.2424 27.354L10.1311 27.3013C10.6131 27.2787 11.0801 27.2485 11.1629 27.2335C11.7654 27.1356 11.7654 27.1431 11.306 27.7155ZM5.61227 31.3381C6.30516 31.6092 7.48006 32.2494 7.81897 32.5356C8.05997 32.7314 8.05997 32.7464 7.96206 32.9874C7.90181 33.123 7.69847 33.4845 7.49512 33.7933C7.2993 34.0946 7.07336 34.4711 6.99052 34.6293C6.74951 35.0962 6.6742 35.1339 6.17713 34.9983C5.6424 34.8402 5.35621 34.569 5.20558 34.0795C5.00223 33.3941 4.67838 31.4586 4.71604 31.1573C4.7311 31.0444 5.04742 31.1121 5.61227 31.3381Z"></path>
</symbol>

<symbol id="icon-small_arrow_right" >
<path d="M0.969834 0.227036C0.829231 0.367682 0.750244 0.558413 0.750244 0.757286C0.750244 0.956159 0.829231 1.14689 0.969834 1.28754L4.68233 5.00004L0.969834 8.71254C0.833216 8.85399 0.757619 9.04344 0.759328 9.24009C0.761037 9.43674 0.839914 9.62484 0.97897 9.7639C1.11803 9.90296 1.30614 9.98183 1.50278 9.98354C1.69943 9.98525 1.88888 9.90965 2.03033 9.77304L6.27308 5.53029C6.41369 5.38964 6.49267 5.19891 6.49267 5.00004C6.49267 4.80116 6.41369 4.61043 6.27308 4.46979L2.03033 0.227036C1.88969 0.0864329 1.69896 0.00744629 1.50008 0.00744629C1.30121 0.00744629 1.11048 0.0864329 0.969834 0.227036Z"></path>
</symbol>

<symbol id="icon-telegram" >
<path d="M8.67276 10.5238L8.3353 14.9538C8.81812 14.9538 9.02722 14.7602 9.27798 14.5278L11.5416 12.5088L16.232 15.7146C17.0922 16.162 17.6983 15.9264 17.9303 14.976L21.0091 1.51162L21.01 1.51083C21.2828 0.324011 20.5501 -0.140087 19.712 0.151065L1.61504 6.61749C0.379963 7.06493 0.398663 7.70753 1.40509 7.99868L6.03175 9.34178L16.7786 3.06576C17.2843 2.75319 17.7442 2.92613 17.3659 3.2387L8.67276 10.5238Z"></path>
</symbol>

<symbol id="icon-vectorfavorite">
<path d="M7 12.88L6.02 11.9C2.38 8.68 0 6.51 0 3.85C0 1.68 1.68 0 3.85 0C5.04 0 6.23 0.56 7 1.47C7.77 0.56 8.96 0 10.15 0C12.32 0 14 1.68 14 3.85C14 6.51 11.62 8.68 7.98 11.9L7 12.88Z"></path>
</symbol>

<symbol id="icon-weight" width="36" height="36" viewBox="0 0 36 36">
<path d="M11.9495 0.615171C7.47847 1.27821 3.79691 3.76058 2.4423 7.01111C2.01016 8.03802 1.89381 8.66872 1.89381 9.90586C1.90212 10.8196 1.93536 11.1592 2.07664 11.6524C2.36751 12.6227 2.57527 13.116 3.00742 13.8113L3.40632 14.4582L2.95755 15.0081C-0.591032 19.423 -0.981625 25.6329 1.97691 30.5249C3.08221 32.3604 4.88559 34.1635 6.64742 35.2147L7.17098 35.522L14.3346 35.4654L21.5066 35.4007L21.8473 35.2147C23.0357 34.5436 24.7144 33.0477 25.6535 31.8348C27.0663 29.9912 27.9888 27.8404 28.3794 25.5116C28.5123 24.6788 28.5123 22.2126 28.3711 21.4283C27.9472 19.0106 27.0414 16.9406 25.612 15.1051C25.3377 14.7574 25.1217 14.4663 25.1217 14.442C25.1217 14.4259 25.2712 14.1752 25.4458 13.8922C25.853 13.2453 26.2186 12.4125 26.4181 11.6848C26.6425 10.8762 26.6425 8.8547 26.4181 8.04611C25.6203 5.17561 23.2269 2.78219 19.8445 1.46419C18.8971 1.09224 17.2765 0.696029 16.2294 0.566655C15.2571 0.453453 12.8554 0.47771 11.9495 0.615171ZM17.0106 1.93317C21.4484 2.79836 24.6978 5.51522 25.2962 8.86278C25.4291 9.61477 25.346 10.8923 25.1217 11.6039C24.8973 12.2993 24.4818 13.116 23.9914 13.8113C23.792 14.0944 23.6258 14.4178 23.6258 14.5229C23.6258 14.628 23.8003 14.9029 24.0496 15.1779C26.1272 17.4823 27.2242 20.369 27.2242 23.4902C27.2159 27.0399 25.853 30.1529 23.2269 32.5949C22.7781 33.0153 22.1382 33.5409 21.7975 33.7673L21.1742 34.1878L14.3014 34.2121L7.43691 34.2444L6.90504 33.9048C4.977 32.6515 3.24011 30.5815 2.27609 28.3821C1.06276 25.6006 0.938101 22.3743 1.92705 19.4796C2.45061 17.9756 3.14869 16.7465 4.21244 15.4528C4.64458 14.9353 4.84404 14.628 4.84404 14.4825C4.84404 14.3612 4.62796 13.965 4.34541 13.5526C3.34815 12.1052 2.94093 10.4961 3.18194 8.97598C3.43125 7.43966 4.12933 6.17827 5.41746 4.92495C7.09618 3.29969 9.43974 2.22426 12.1905 1.81997C13.3291 1.65016 15.8471 1.71485 17.0106 1.93317Z" />
<path d="M12.3233 3.35635C8.91603 3.91428 6.24836 5.80638 5.37576 8.28875C5.17631 8.84667 5.14307 9.06499 5.14307 9.8655C5.14307 10.666 5.17631 10.8843 5.37576 11.4422C5.50042 11.798 5.73311 12.2913 5.89101 12.5419C6.32316 13.2373 6.5143 13.2616 7.37028 12.7441C8.6501 11.9597 10.1211 11.3856 11.6502 11.0703C12.6807 10.8601 14.6586 10.7792 15.7805 10.9086C17.534 11.1107 19.4371 11.7414 20.9579 12.639C21.3901 12.8896 21.8306 13.0999 21.9386 13.0999C22.5702 13.0999 23.3763 11.2805 23.3763 9.8655C23.3763 6.72008 20.3679 4.02748 16.1046 3.35635C15.1988 3.2108 13.1959 3.2108 12.3233 3.35635ZM16.437 4.65009C17.8664 4.95736 19.1795 5.53954 20.1685 6.3077C21.4981 7.33461 22.2128 8.76581 22.0965 10.1485C22.0549 10.6983 21.8472 11.4422 21.7225 11.5231C21.6893 11.5393 21.2239 11.3452 20.692 11.0865C19.5867 10.5528 18.3318 10.1242 17.0603 9.84932C16.2874 9.68761 15.9633 9.66335 14.2348 9.67143C12.5311 9.67143 12.1737 9.69569 11.4341 9.84932C10.1543 10.1242 9.15704 10.4639 7.92708 11.046C6.68882 11.6363 6.7553 11.6444 6.53092 10.9167C6.24005 9.97061 6.42288 8.7173 6.988 7.77125C7.28718 7.26992 8.10992 6.43708 8.70827 6.0247C9.84681 5.24036 10.8441 4.88458 12.9882 4.49646C13.4286 4.4156 15.8719 4.5288 16.437 4.65009Z" />
<path d="M15.0827 15.0808C14.85 15.3719 14.85 15.6468 15.091 15.8813C15.2489 16.035 15.4068 16.0754 15.9802 16.1158C17.0938 16.1967 18.1576 16.5201 19.1133 17.07C19.7947 17.4743 20.8335 18.4526 21.2989 19.1561C21.9887 20.1669 22.4624 21.6142 22.4624 22.6816C22.4624 23.0535 22.4956 23.1667 22.6702 23.3284C22.9361 23.5953 23.2851 23.5953 23.5428 23.3284C23.7256 23.1425 23.7339 23.0939 23.684 22.3015C23.4513 18.388 20.1022 15.1213 16.0966 14.9029L15.2655 14.8544L15.0827 15.0808Z"></path>
</symbol>

<symbol id="icon-burger-menu" width="32" height="32" viewBox="0 0 32 32">
<path d="M31.5,18.75H3.5a1.25,1.25,0,0,1,0-2.5h28a1.25,1.25,0,0,1,0,2.5Z"/>
<path d="M31.5,5.455H3.5a1.25,1.25,0,0,1,0-2.5h28a1.25,1.25,0,0,1,0,2.5Z"/>
<path d="M31.5,32.045H3.5a1.25,1.25,0,0,1,0-2.5h28a1.25,1.25,0,0,1,0,2.5Z"/>
</symbol>

<symbol id="cross" >
<path class="fil0" d="M5.91083 1.2175c0.0833031,-0.0833031 0.0833031,-0.218366 0,-0.301669 -0.0833031,-0.0833031 -0.218366,-0.0833031 -0.301669,0l-4.69334 4.69333c-0.0833031,0.0833031 -0.0833031,0.218366 0,0.301669 0.0833031,0.0833031 0.218366,0.0833031 0.301669,0l4.69334 -4.69333z"/>
<path class="fil0" d="M1.2175 0.915827c-0.0833031,-0.0833031 -0.218366,-0.0833031 -0.301669,0 -0.0833031,0.0833031 -0.0833031,0.218366 0,0.301669l4.69334 4.69333c0.0833031,0.0833031 0.218366,0.0833031 0.301669,0 0.0833031,-0.0833031 0.0833031,-0.218366 0,-0.301669l-4.69334 -4.69333z"></path>
</symbol>

</defs>
</svg>
